<mxfile host="" modified="2020-05-24T15:21:41.060Z" agent="5.0 (X11; Linux x86_64) AppleWebKit/537.36 (KHTML, like Gecko) Code/1.45.0 Chrome/78.0.3904.130 Electron/7.2.4 Safari/537.36" version="13.1.3" etag="lrwgP8mNOWNbAz78NI_h" pages="2">
            <diagram id="diagramid" name="Diagram">
              <mxGraphModel><root><mxCell id="0"/><mxCell id="1" parent="0"/><mxCell id="2" value="vpcfortigosports52282003" style="outlineConnect=0;fontColor=#B3B3B3;gradientColor=#945DF2;gradientDirection=north;fillColor=#5A30B5;strokeColor=#ffffff;dashed=0;verticalLabelPosition=bottom;verticalAlign=top;align=center;html=1;fontSize=12;fontStyle=0;aspect=fixed;shape=mxgraph.aws4.resourceIcon;resIcon=mxgraph.aws4.vpc;" vertex="1" parent="1"><mxGeometry x="750" y="587.5" width="50" height="50" as="geometry"/></mxCell><mxCell id="3" value="vpcfortigosportssubnet1Subnet1SubnetE4FDC40A" style="outlineConnect=0;fontColor=#B3B3B3;gradientColor=#F78E04;gradientDirection=north;fillColor=#D05C17;strokeColor=#ffffff;dashed=0;verticalLabelPosition=bottom;verticalAlign=top;align=center;html=1;fontSize=12;fontStyle=0;aspect=fixed;shape=mxgraph.aws4.resourceIcon;resIcon=mxgraph.aws4.ec2;" vertex="1" parent="1"><mxGeometry x="500" y="625" width="50" height="50" as="geometry"/></mxCell><mxCell id="4" value="vpcfortigosportssubnet1Subnet1RouteTable60205992" style="outlineConnect=0;fontColor=#B3B3B3;gradientColor=#945DF2;gradientDirection=north;fillColor=#5A30B5;strokeColor=#ffffff;dashed=0;verticalLabelPosition=bottom;verticalAlign=top;align=center;html=1;fontSize=12;fontStyle=0;aspect=fixed;shape=mxgraph.aws4.resourceIcon;resIcon=mxgraph.aws4.route_table;" vertex="1" parent="1"><mxGeometry x="250" width="50" height="50" as="geometry"/></mxCell><mxCell id="5" value="vpcfortigosportssubnet1Subnet1RouteTableAssociation9BEEB64C" style="outlineConnect=0;fontColor=#B3B3B3;gradientColor=#945DF2;gradientDirection=north;fillColor=#5A30B5;strokeColor=#ffffff;dashed=0;verticalLabelPosition=bottom;verticalAlign=top;align=center;html=1;fontSize=12;fontStyle=0;aspect=fixed;shape=mxgraph.aws4.resourceIcon;resIcon=mxgraph.aws4.route_table;" vertex="1" parent="1"><mxGeometry y="37.5" width="50" height="50" as="geometry"/></mxCell><mxCell id="6" value="vpcfortigosportssubnet1Subnet2Subnet16BDA1A1" style="outlineConnect=0;fontColor=#B3B3B3;gradientColor=#F78E04;gradientDirection=north;fillColor=#D05C17;strokeColor=#ffffff;dashed=0;verticalLabelPosition=bottom;verticalAlign=top;align=center;html=1;fontSize=12;fontStyle=0;aspect=fixed;shape=mxgraph.aws4.resourceIcon;resIcon=mxgraph.aws4.ec2;" vertex="1" parent="1"><mxGeometry x="500" y="725" width="50" height="50" as="geometry"/></mxCell><mxCell id="7" value="vpcfortigosportssubnet1Subnet2RouteTableE74DAA45" style="outlineConnect=0;fontColor=#B3B3B3;gradientColor=#945DF2;gradientDirection=north;fillColor=#5A30B5;strokeColor=#ffffff;dashed=0;verticalLabelPosition=bottom;verticalAlign=top;align=center;html=1;fontSize=12;fontStyle=0;aspect=fixed;shape=mxgraph.aws4.resourceIcon;resIcon=mxgraph.aws4.route_table;" vertex="1" parent="1"><mxGeometry x="250" y="150" width="50" height="50" as="geometry"/></mxCell><mxCell id="8" value="vpcfortigosportssubnet1Subnet2RouteTableAssociation142CD254" style="outlineConnect=0;fontColor=#B3B3B3;gradientColor=#945DF2;gradientDirection=north;fillColor=#5A30B5;strokeColor=#ffffff;dashed=0;verticalLabelPosition=bottom;verticalAlign=top;align=center;html=1;fontSize=12;fontStyle=0;aspect=fixed;shape=mxgraph.aws4.resourceIcon;resIcon=mxgraph.aws4.route_table;" vertex="1" parent="1"><mxGeometry y="187.5" width="50" height="50" as="geometry"/></mxCell><mxCell id="9" value="vpcfortigosportssubnetpublicSubnet1Subnet5B85BEF8" style="outlineConnect=0;fontColor=#B3B3B3;gradientColor=#F78E04;gradientDirection=north;fillColor=#D05C17;strokeColor=#ffffff;dashed=0;verticalLabelPosition=bottom;verticalAlign=top;align=center;html=1;fontSize=12;fontStyle=0;aspect=fixed;shape=mxgraph.aws4.resourceIcon;resIcon=mxgraph.aws4.ec2;" vertex="1" parent="1"><mxGeometry x="250" y="500" width="50" height="50" as="geometry"/></mxCell><mxCell id="10" value="vpcfortigosportssubnetpublicSubnet1RouteTableBB6EC720" style="outlineConnect=0;fontColor=#B3B3B3;gradientColor=#945DF2;gradientDirection=north;fillColor=#5A30B5;strokeColor=#ffffff;dashed=0;verticalLabelPosition=bottom;verticalAlign=top;align=center;html=1;fontSize=12;fontStyle=0;aspect=fixed;shape=mxgraph.aws4.resourceIcon;resIcon=mxgraph.aws4.route_table;" vertex="1" parent="1"><mxGeometry x="250" y="300" width="50" height="50" as="geometry"/></mxCell><mxCell id="11" value="vpcfortigosportssubnetpublicSubnet1RouteTableAssociationF7A43C93" style="outlineConnect=0;fontColor=#B3B3B3;gradientColor=#945DF2;gradientDirection=north;fillColor=#5A30B5;strokeColor=#ffffff;dashed=0;verticalLabelPosition=bottom;verticalAlign=top;align=center;html=1;fontSize=12;fontStyle=0;aspect=fixed;shape=mxgraph.aws4.resourceIcon;resIcon=mxgraph.aws4.route_table;" vertex="1" parent="1"><mxGeometry y="325" width="50" height="50" as="geometry"/></mxCell><mxCell id="12" value="vpcfortigosportssubnetpublicSubnet1DefaultRouteFF0842EB" style="outlineConnect=0;fontColor=#B3B3B3;gradientColor=#945DF2;gradientDirection=north;fillColor=#5A30B5;strokeColor=#ffffff;dashed=0;verticalLabelPosition=bottom;verticalAlign=top;align=center;html=1;fontSize=12;fontStyle=0;aspect=fixed;shape=mxgraph.aws4.resourceIcon;resIcon=mxgraph.aws4.route_table;" vertex="1" parent="1"><mxGeometry y="425" width="50" height="50" as="geometry"/></mxCell><mxCell id="13" value="vpcfortigosportssubnetpublicSubnet2Subnet2A8F5A01" style="outlineConnect=0;fontColor=#B3B3B3;gradientColor=#F78E04;gradientDirection=north;fillColor=#D05C17;strokeColor=#ffffff;dashed=0;verticalLabelPosition=bottom;verticalAlign=top;align=center;html=1;fontSize=12;fontStyle=0;aspect=fixed;shape=mxgraph.aws4.resourceIcon;resIcon=mxgraph.aws4.ec2;" vertex="1" parent="1"><mxGeometry x="250" y="400" width="50" height="50" as="geometry"/></mxCell><mxCell id="14" value="vpcfortigosportssubnetpublicSubnet2RouteTable7631F508" style="outlineConnect=0;fontColor=#B3B3B3;gradientColor=#945DF2;gradientDirection=north;fillColor=#5A30B5;strokeColor=#ffffff;dashed=0;verticalLabelPosition=bottom;verticalAlign=top;align=center;html=1;fontSize=12;fontStyle=0;aspect=fixed;shape=mxgraph.aws4.resourceIcon;resIcon=mxgraph.aws4.route_table;" vertex="1" parent="1"><mxGeometry x="250" y="600" width="50" height="50" as="geometry"/></mxCell><mxCell id="15" value="vpcfortigosportssubnetpublicSubnet2RouteTableAssociation563D78B5" style="outlineConnect=0;fontColor=#B3B3B3;gradientColor=#945DF2;gradientDirection=north;fillColor=#5A30B5;strokeColor=#ffffff;dashed=0;verticalLabelPosition=bottom;verticalAlign=top;align=center;html=1;fontSize=12;fontStyle=0;aspect=fixed;shape=mxgraph.aws4.resourceIcon;resIcon=mxgraph.aws4.route_table;" vertex="1" parent="1"><mxGeometry y="525" width="50" height="50" as="geometry"/></mxCell><mxCell id="16" value="vpcfortigosportssubnetpublicSubnet2DefaultRoute2A6D731D" style="outlineConnect=0;fontColor=#B3B3B3;gradientColor=#945DF2;gradientDirection=north;fillColor=#5A30B5;strokeColor=#ffffff;dashed=0;verticalLabelPosition=bottom;verticalAlign=top;align=center;html=1;fontSize=12;fontStyle=0;aspect=fixed;shape=mxgraph.aws4.resourceIcon;resIcon=mxgraph.aws4.route_table;" vertex="1" parent="1"><mxGeometry y="625" width="50" height="50" as="geometry"/></mxCell><mxCell id="17" value="vpcfortigosportsIGWC9F2C3CB" style="outlineConnect=0;fontColor=#B3B3B3;gradientColor=#F78E04;gradientDirection=north;fillColor=#D05C17;strokeColor=#ffffff;dashed=0;verticalLabelPosition=bottom;verticalAlign=top;align=center;html=1;fontSize=12;fontStyle=0;aspect=fixed;shape=mxgraph.aws4.resourceIcon;resIcon=mxgraph.aws4.ec2;" vertex="1" parent="1"><mxGeometry x="250" y="700" width="50" height="50" as="geometry"/></mxCell><mxCell id="18" value="vpcfortigosportsVPCGW3FC7CB9A" style="outlineConnect=0;fontColor=#B3B3B3;gradientColor=#F78E04;gradientDirection=north;fillColor=#D05C17;strokeColor=#ffffff;dashed=0;verticalLabelPosition=bottom;verticalAlign=top;align=center;html=1;fontSize=12;fontStyle=0;aspect=fixed;shape=mxgraph.aws4.resourceIcon;resIcon=mxgraph.aws4.ec2;" vertex="1" parent="1"><mxGeometry y="725" width="50" height="50" as="geometry"/></mxCell><mxCell id="19" value="publicSecurityGroupB75ADFFE" style="outlineConnect=0;fontColor=#B3B3B3;gradientColor=#F78E04;gradientDirection=north;fillColor=#D05C17;strokeColor=#ffffff;dashed=0;verticalLabelPosition=bottom;verticalAlign=top;align=center;html=1;fontSize=12;fontStyle=0;aspect=fixed;shape=mxgraph.aws4.resourceIcon;resIcon=mxgraph.aws4.ec2;" vertex="1" parent="1"><mxGeometry x="250" y="1050" width="50" height="50" as="geometry"/></mxCell><mxCell id="20" value="bastionidInstanceRoleB68B7191" style="outlineConnect=0;fontColor=#B3B3B3;gradientColor=#F54749;gradientDirection=north;fillColor=#C7131F;strokeColor=#ffffff;dashed=0;verticalLabelPosition=bottom;verticalAlign=top;align=center;html=1;fontSize=12;fontStyle=0;aspect=fixed;shape=mxgraph.aws4.resourceIcon;resIcon=mxgraph.aws4.role;" vertex="1" parent="1"><mxGeometry x="500" y="875" width="50" height="50" as="geometry"/></mxCell><mxCell id="21" value="bastionidInstanceRoleDefaultPolicy9C7C0461" style="outlineConnect=0;fontColor=#B3B3B3;gradientColor=#F54749;gradientDirection=north;fillColor=#C7131F;strokeColor=#ffffff;dashed=0;verticalLabelPosition=bottom;verticalAlign=top;align=center;html=1;fontSize=12;fontStyle=0;aspect=fixed;shape=mxgraph.aws4.resourceIcon;resIcon=mxgraph.aws4.identity_and_access_management;" vertex="1" parent="1"><mxGeometry x="250" y="850" width="50" height="50" as="geometry"/></mxCell><mxCell id="22" value="bastionidInstanceProfileCF4D6490" style="outlineConnect=0;fontColor=#B3B3B3;gradientColor=#F54749;gradientDirection=north;fillColor=#C7131F;strokeColor=#ffffff;dashed=0;verticalLabelPosition=bottom;verticalAlign=top;align=center;html=1;fontSize=12;fontStyle=0;aspect=fixed;shape=mxgraph.aws4.resourceIcon;resIcon=mxgraph.aws4.identity_and_access_management;" vertex="1" parent="1"><mxGeometry x="250" y="950" width="50" height="50" as="geometry"/></mxCell><mxCell id="23" value="bastionid504C2386" style="outlineConnect=0;fontColor=#B3B3B3;gradientColor=#F78E04;gradientDirection=north;fillColor=#D05C17;strokeColor=#ffffff;dashed=0;verticalLabelPosition=bottom;verticalAlign=top;align=center;html=1;fontSize=12;fontStyle=0;aspect=fixed;shape=mxgraph.aws4.resourceIcon;resIcon=mxgraph.aws4.ec2;" vertex="1" parent="1"><mxGeometry y="825" width="50" height="50" as="geometry"/></mxCell><mxCell id="24" value="RoleForLambdaEDC43426" style="outlineConnect=0;fontColor=#B3B3B3;gradientColor=#F54749;gradientDirection=north;fillColor=#C7131F;strokeColor=#ffffff;dashed=0;verticalLabelPosition=bottom;verticalAlign=top;align=center;html=1;fontSize=12;fontStyle=0;aspect=fixed;shape=mxgraph.aws4.resourceIcon;resIcon=mxgraph.aws4.role;" vertex="1" parent="1"><mxGeometry y="1500" width="50" height="50" as="geometry"/></mxCell><mxCell id="25" value="rdsSecurityGroup7880CD68" style="outlineConnect=0;fontColor=#B3B3B3;gradientColor=#F78E04;gradientDirection=north;fillColor=#D05C17;strokeColor=#ffffff;dashed=0;verticalLabelPosition=bottom;verticalAlign=top;align=center;html=1;fontSize=12;fontStyle=0;aspect=fixed;shape=mxgraph.aws4.resourceIcon;resIcon=mxgraph.aws4.ec2;" vertex="1" parent="1"><mxGeometry x="250" y="1250" width="50" height="50" as="geometry"/></mxCell><mxCell id="26" value="rdsSecurityGroupfromInfraCdkStacklambdaSecurityGroup6A9079073306015AA4A2" style="outlineConnect=0;fontColor=#B3B3B3;gradientColor=#F78E04;gradientDirection=north;fillColor=#D05C17;strokeColor=#ffffff;dashed=0;verticalLabelPosition=bottom;verticalAlign=top;align=center;html=1;fontSize=12;fontStyle=0;aspect=fixed;shape=mxgraph.aws4.resourceIcon;resIcon=mxgraph.aws4.ec2;" vertex="1" parent="1"><mxGeometry y="1025" width="50" height="50" as="geometry"/></mxCell><mxCell id="27" value="rdsSecurityGroupfromInfraCdkStackpublicSecurityGroupFFE1194433068CDB73C9" style="outlineConnect=0;fontColor=#B3B3B3;gradientColor=#F78E04;gradientDirection=north;fillColor=#D05C17;strokeColor=#ffffff;dashed=0;verticalLabelPosition=bottom;verticalAlign=top;align=center;html=1;fontSize=12;fontStyle=0;aspect=fixed;shape=mxgraph.aws4.resourceIcon;resIcon=mxgraph.aws4.ec2;" vertex="1" parent="1"><mxGeometry y="925" width="50" height="50" as="geometry"/></mxCell><mxCell id="28" value="lambdaSecurityGroup2DB5E13D" style="outlineConnect=0;fontColor=#B3B3B3;gradientColor=#F78E04;gradientDirection=north;fillColor=#D05C17;strokeColor=#ffffff;dashed=0;verticalLabelPosition=bottom;verticalAlign=top;align=center;html=1;fontSize=12;fontStyle=0;aspect=fixed;shape=mxgraph.aws4.resourceIcon;resIcon=mxgraph.aws4.ec2;" vertex="1" parent="1"><mxGeometry x="250" y="1150" width="50" height="50" as="geometry"/></mxCell><mxCell id="29" value="lambdaSecurityGrouptoInfraCdkStackrdsSecurityGroup365C17A833061F70ABEA" style="outlineConnect=0;fontColor=#B3B3B3;gradientColor=#F78E04;gradientDirection=north;fillColor=#D05C17;strokeColor=#ffffff;dashed=0;verticalLabelPosition=bottom;verticalAlign=top;align=center;html=1;fontSize=12;fontStyle=0;aspect=fixed;shape=mxgraph.aws4.resourceIcon;resIcon=mxgraph.aws4.ec2;" vertex="1" parent="1"><mxGeometry y="1125" width="50" height="50" as="geometry"/></mxCell><mxCell id="30" value="dbtigosportsSubnetGroup61987175" style="outlineConnect=0;fontColor=#B3B3B3;gradientColor=#4D72F3;gradientDirection=north;fillColor=#3334B9;strokeColor=#ffffff;dashed=0;verticalLabelPosition=bottom;verticalAlign=top;align=center;html=1;fontSize=12;fontStyle=0;aspect=fixed;shape=mxgraph.aws4.resourceIcon;resIcon=mxgraph.aws4.rds;" vertex="1" parent="1"><mxGeometry x="250" y="1350" width="50" height="50" as="geometry"/></mxCell><mxCell id="31" value="dbtigosportsC8339F6F" style="outlineConnect=0;fontColor=#B3B3B3;gradientColor=#4D72F3;gradientDirection=north;fillColor=#3334B9;strokeColor=#ffffff;dashed=0;verticalLabelPosition=bottom;verticalAlign=top;align=center;html=1;fontSize=12;fontStyle=0;aspect=fixed;shape=mxgraph.aws4.resourceIcon;resIcon=mxgraph.aws4.rds;" vertex="1" parent="1"><mxGeometry y="1300" width="50" height="50" as="geometry"/></mxCell><mxCell id="32" value="CDKMetadata" style="outlineConnect=0;fontColor=#B3B3B3;gradientColor=#aaaaaa;gradientDirection=north;fillColor=#aaaaaa;strokeColor=#ffffff;dashed=0;verticalLabelPosition=bottom;verticalAlign=top;align=center;html=1;fontSize=12;fontStyle=0;aspect=fixed;shape=mxgraph.aws4.resourceIcon;resIcon=mxgraph.aws4.cdk;" vertex="1" parent="1"><mxGeometry y="1650" width="50" height="50" as="geometry"/></mxCell><mxCell id="vpcfortigosports52282003|vpcfortigosportssubnet1Subnet1SubnetE4FDC40A" value="VpcId" style="edgeStyle=orthogonalEdgeStyle;rounded=1;orthogonalLoop=1;jettySize=auto;html=1;labelBackgroundColor=none;fontColor=#EA6B66;noEdgeStyle=1;orthogonal=1;" edge="1" parent="1" source="3" target="2"><mxGeometry relative="1" as="geometry"><Array as="points"><mxPoint x="562" y="650"/><mxPoint x="728" y="614.5833333333331"/></Array></mxGeometry></mxCell><mxCell id="vpcfortigosports52282003|vpcfortigosportssubnet1Subnet1RouteTable60205992" value="VpcId" style="edgeStyle=orthogonalEdgeStyle;rounded=1;orthogonalLoop=1;jettySize=auto;html=1;labelBackgroundColor=none;fontColor=#EA6B66;noEdgeStyle=1;orthogonal=1;" edge="1" parent="1" source="4" target="2"><mxGeometry relative="1" as="geometry"><Array as="points"><mxPoint x="312" y="25"/><mxPoint x="400" y="318.75"/><mxPoint x="650" y="318.75"/><mxPoint x="738" y="589.5833333333334"/></Array></mxGeometry></mxCell><mxCell id="vpcfortigosportssubnet1Subnet1RouteTable60205992|vpcfortigosportssubnet1Subnet1RouteTableAssociation9BEEB64C" value="RouteTableId" style="edgeStyle=orthogonalEdgeStyle;rounded=1;orthogonalLoop=1;jettySize=auto;html=1;labelBackgroundColor=none;fontColor=#EA6B66;noEdgeStyle=1;orthogonal=1;" edge="1" parent="1" source="5" target="4"><mxGeometry relative="1" as="geometry"><Array as="points"><mxPoint x="62" y="52.5"/><mxPoint x="238" y="25"/></Array></mxGeometry></mxCell><mxCell id="vpcfortigosportssubnet1Subnet1SubnetE4FDC40A|vpcfortigosportssubnet1Subnet1RouteTableAssociation9BEEB64C" value="SubnetId" style="edgeStyle=orthogonalEdgeStyle;rounded=1;orthogonalLoop=1;jettySize=auto;html=1;labelBackgroundColor=none;fontColor=#EA6B66;noEdgeStyle=1;orthogonal=1;" edge="1" parent="1" source="5" target="3"><mxGeometry relative="1" as="geometry"><Array as="points"><mxPoint x="62" y="72.5"/><mxPoint x="150" y="100"/><mxPoint x="400" y="100"/><mxPoint x="488" y="640"/></Array></mxGeometry></mxCell><mxCell id="vpcfortigosports52282003|vpcfortigosportssubnet1Subnet2Subnet16BDA1A1" value="VpcId" style="edgeStyle=orthogonalEdgeStyle;rounded=1;orthogonalLoop=1;jettySize=auto;html=1;labelBackgroundColor=none;fontColor=#EA6B66;noEdgeStyle=1;orthogonal=1;" edge="1" parent="1" source="6" target="2"><mxGeometry relative="1" as="geometry"><Array as="points"><mxPoint x="562" y="750"/><mxPoint x="730" y="618.7499999999998"/></Array></mxGeometry></mxCell><mxCell id="vpcfortigosports52282003|vpcfortigosportssubnet1Subnet2RouteTableE74DAA45" value="VpcId" style="edgeStyle=orthogonalEdgeStyle;rounded=1;orthogonalLoop=1;jettySize=auto;html=1;labelBackgroundColor=none;fontColor=#EA6B66;noEdgeStyle=1;orthogonal=1;" edge="1" parent="1" source="7" target="2"><mxGeometry relative="1" as="geometry"><Array as="points"><mxPoint x="312" y="175"/><mxPoint x="400" y="375"/><mxPoint x="650" y="375"/><mxPoint x="736" y="593.75"/></Array></mxGeometry></mxCell><mxCell id="vpcfortigosportssubnet1Subnet2RouteTableE74DAA45|vpcfortigosportssubnet1Subnet2RouteTableAssociation142CD254" value="RouteTableId" style="edgeStyle=orthogonalEdgeStyle;rounded=1;orthogonalLoop=1;jettySize=auto;html=1;labelBackgroundColor=none;fontColor=#EA6B66;noEdgeStyle=1;orthogonal=1;" edge="1" parent="1" source="8" target="7"><mxGeometry relative="1" as="geometry"><Array as="points"><mxPoint x="62" y="202.5"/><mxPoint x="238" y="175"/></Array></mxGeometry></mxCell><mxCell id="vpcfortigosportssubnet1Subnet2Subnet16BDA1A1|vpcfortigosportssubnet1Subnet2RouteTableAssociation142CD254" value="SubnetId" style="edgeStyle=orthogonalEdgeStyle;rounded=1;orthogonalLoop=1;jettySize=auto;html=1;labelBackgroundColor=none;fontColor=#EA6B66;noEdgeStyle=1;orthogonal=1;" edge="1" parent="1" source="8" target="6"><mxGeometry relative="1" as="geometry"><Array as="points"><mxPoint x="62" y="222.5"/><mxPoint x="150" y="250"/><mxPoint x="400" y="250"/><mxPoint x="488" y="740"/></Array></mxGeometry></mxCell><mxCell id="vpcfortigosports52282003|vpcfortigosportssubnetpublicSubnet1Subnet5B85BEF8" value="VpcId" style="edgeStyle=orthogonalEdgeStyle;rounded=1;orthogonalLoop=1;jettySize=auto;html=1;labelBackgroundColor=none;fontColor=#EA6B66;noEdgeStyle=1;orthogonal=1;" edge="1" parent="1" source="9" target="2"><mxGeometry relative="1" as="geometry"><Array as="points"><mxPoint x="312" y="525"/><mxPoint x="400" y="525"/><mxPoint x="650" y="525"/><mxPoint x="730" y="606.2499999999999"/></Array></mxGeometry></mxCell><mxCell id="vpcfortigosports52282003|vpcfortigosportssubnetpublicSubnet1RouteTableBB6EC720" value="VpcId" style="edgeStyle=orthogonalEdgeStyle;rounded=1;orthogonalLoop=1;jettySize=auto;html=1;labelBackgroundColor=none;fontColor=#EA6B66;noEdgeStyle=1;orthogonal=1;" edge="1" parent="1" source="10" target="2"><mxGeometry relative="1" as="geometry"><Array as="points"><mxPoint x="312" y="325"/><mxPoint x="400" y="425"/><mxPoint x="650" y="425"/><mxPoint x="734" y="597.9166666666666"/></Array></mxGeometry></mxCell><mxCell id="vpcfortigosportssubnetpublicSubnet1RouteTableBB6EC720|vpcfortigosportssubnetpublicSubnet1RouteTableAssociationF7A43C93" value="RouteTableId" style="edgeStyle=orthogonalEdgeStyle;rounded=1;orthogonalLoop=1;jettySize=auto;html=1;labelBackgroundColor=none;fontColor=#EA6B66;noEdgeStyle=1;orthogonal=1;" edge="1" parent="1" source="11" target="10"><mxGeometry relative="1" as="geometry"><Array as="points"><mxPoint x="62" y="340"/><mxPoint x="238" y="315"/></Array></mxGeometry></mxCell><mxCell id="vpcfortigosportssubnetpublicSubnet1Subnet5B85BEF8|vpcfortigosportssubnetpublicSubnet1RouteTableAssociationF7A43C93" value="SubnetId" style="edgeStyle=orthogonalEdgeStyle;rounded=1;orthogonalLoop=1;jettySize=auto;html=1;labelBackgroundColor=none;fontColor=#EA6B66;noEdgeStyle=1;orthogonal=1;" edge="1" parent="1" source="11" target="9"><mxGeometry relative="1" as="geometry"><Array as="points"><mxPoint x="62" y="360"/><mxPoint x="238" y="515"/></Array></mxGeometry></mxCell><mxCell id="vpcfortigosportssubnetpublicSubnet1RouteTableBB6EC720|vpcfortigosportssubnetpublicSubnet1DefaultRouteFF0842EB" value="RouteTableId" style="edgeStyle=orthogonalEdgeStyle;rounded=1;orthogonalLoop=1;jettySize=auto;html=1;labelBackgroundColor=none;fontColor=#EA6B66;noEdgeStyle=1;orthogonal=1;" edge="1" parent="1" source="12" target="10"><mxGeometry relative="1" as="geometry"><Array as="points"><mxPoint x="62" y="440"/><mxPoint x="238" y="335"/></Array></mxGeometry></mxCell><mxCell id="vpcfortigosportsIGWC9F2C3CB|vpcfortigosportssubnetpublicSubnet1DefaultRouteFF0842EB" value="GatewayId" style="edgeStyle=orthogonalEdgeStyle;rounded=1;orthogonalLoop=1;jettySize=auto;html=1;labelBackgroundColor=none;fontColor=#EA6B66;noEdgeStyle=1;orthogonal=1;" edge="1" parent="1" source="12" target="17"><mxGeometry relative="1" as="geometry"><Array as="points"><mxPoint x="62" y="460"/><mxPoint x="238" y="711.6666666666666"/></Array></mxGeometry></mxCell><mxCell id="vpcfortigosports52282003|vpcfortigosportssubnetpublicSubnet2Subnet2A8F5A01" value="VpcId" style="edgeStyle=orthogonalEdgeStyle;rounded=1;orthogonalLoop=1;jettySize=auto;html=1;labelBackgroundColor=none;fontColor=#EA6B66;noEdgeStyle=1;orthogonal=1;" edge="1" parent="1" source="13" target="2"><mxGeometry relative="1" as="geometry"><Array as="points"><mxPoint x="312" y="425"/><mxPoint x="400" y="475"/><mxPoint x="650" y="475"/><mxPoint x="732" y="602.0833333333333"/></Array></mxGeometry></mxCell><mxCell id="vpcfortigosports52282003|vpcfortigosportssubnetpublicSubnet2RouteTable7631F508" value="VpcId" style="edgeStyle=orthogonalEdgeStyle;rounded=1;orthogonalLoop=1;jettySize=auto;html=1;labelBackgroundColor=none;fontColor=#EA6B66;noEdgeStyle=1;orthogonal=1;" edge="1" parent="1" source="14" target="2"><mxGeometry relative="1" as="geometry"><Array as="points"><mxPoint x="312" y="625"/><mxPoint x="400" y="575"/><mxPoint x="650" y="575"/><mxPoint x="728" y="610.4166666666665"/></Array></mxGeometry></mxCell><mxCell id="vpcfortigosportssubnetpublicSubnet2RouteTable7631F508|vpcfortigosportssubnetpublicSubnet2RouteTableAssociation563D78B5" value="RouteTableId" style="edgeStyle=orthogonalEdgeStyle;rounded=1;orthogonalLoop=1;jettySize=auto;html=1;labelBackgroundColor=none;fontColor=#EA6B66;noEdgeStyle=1;orthogonal=1;" edge="1" parent="1" source="15" target="14"><mxGeometry relative="1" as="geometry"><Array as="points"><mxPoint x="62" y="560"/><mxPoint x="238" y="615"/></Array></mxGeometry></mxCell><mxCell id="vpcfortigosportssubnetpublicSubnet2Subnet2A8F5A01|vpcfortigosportssubnetpublicSubnet2RouteTableAssociation563D78B5" value="SubnetId" style="edgeStyle=orthogonalEdgeStyle;rounded=1;orthogonalLoop=1;jettySize=auto;html=1;labelBackgroundColor=none;fontColor=#EA6B66;noEdgeStyle=1;orthogonal=1;" edge="1" parent="1" source="15" target="13"><mxGeometry relative="1" as="geometry"><Array as="points"><mxPoint x="62" y="540"/><mxPoint x="238" y="425"/></Array></mxGeometry></mxCell><mxCell id="vpcfortigosportssubnetpublicSubnet2RouteTable7631F508|vpcfortigosportssubnetpublicSubnet2DefaultRoute2A6D731D" value="RouteTableId" style="edgeStyle=orthogonalEdgeStyle;rounded=1;orthogonalLoop=1;jettySize=auto;html=1;labelBackgroundColor=none;fontColor=#EA6B66;noEdgeStyle=1;orthogonal=1;" edge="1" parent="1" source="16" target="14"><mxGeometry relative="1" as="geometry"><Array as="points"><mxPoint x="62" y="640"/><mxPoint x="238" y="635"/></Array></mxGeometry></mxCell><mxCell id="vpcfortigosportsIGWC9F2C3CB|vpcfortigosportssubnetpublicSubnet2DefaultRoute2A6D731D" value="GatewayId" style="edgeStyle=orthogonalEdgeStyle;rounded=1;orthogonalLoop=1;jettySize=auto;html=1;labelBackgroundColor=none;fontColor=#EA6B66;noEdgeStyle=1;orthogonal=1;" edge="1" parent="1" source="16" target="17"><mxGeometry relative="1" as="geometry"><Array as="points"><mxPoint x="62" y="660"/><mxPoint x="236" y="725"/></Array></mxGeometry></mxCell><mxCell id="vpcfortigosports52282003|vpcfortigosportsVPCGW3FC7CB9A" value="VpcId" style="edgeStyle=orthogonalEdgeStyle;rounded=1;orthogonalLoop=1;jettySize=auto;html=1;labelBackgroundColor=none;fontColor=#EA6B66;noEdgeStyle=1;orthogonal=1;" edge="1" parent="1" source="18" target="2"><mxGeometry relative="1" as="geometry"><Array as="points"><mxPoint x="62" y="760"/><mxPoint x="150" y="800"/><mxPoint x="400" y="800"/><mxPoint x="400" y="825"/><mxPoint x="650" y="825"/><mxPoint x="732" y="622.9166666666664"/></Array></mxGeometry></mxCell><mxCell id="vpcfortigosportsIGWC9F2C3CB|vpcfortigosportsVPCGW3FC7CB9A" value="InternetGatewayId" style="edgeStyle=orthogonalEdgeStyle;rounded=1;orthogonalLoop=1;jettySize=auto;html=1;labelBackgroundColor=none;fontColor=#EA6B66;noEdgeStyle=1;orthogonal=1;" edge="1" parent="1" source="18" target="17"><mxGeometry relative="1" as="geometry"><Array as="points"><mxPoint x="62" y="740"/><mxPoint x="238" y="738.3333333333334"/></Array></mxGeometry></mxCell><mxCell id="vpcfortigosports52282003|publicSecurityGroupB75ADFFE" value="VpcId" style="edgeStyle=orthogonalEdgeStyle;rounded=1;orthogonalLoop=1;jettySize=auto;html=1;labelBackgroundColor=none;fontColor=#EA6B66;noEdgeStyle=1;orthogonal=1;" edge="1" parent="1" source="19" target="2"><mxGeometry relative="1" as="geometry"><Array as="points"><mxPoint x="312" y="1075"/><mxPoint x="400" y="975"/><mxPoint x="650" y="975"/><mxPoint x="734" y="627.083333333333"/></Array></mxGeometry></mxCell><mxCell id="bastionidInstanceRoleB68B7191|bastionidInstanceRoleDefaultPolicy9C7C0461" value="Roles" style="edgeStyle=orthogonalEdgeStyle;rounded=1;orthogonalLoop=1;jettySize=auto;html=1;labelBackgroundColor=none;fontColor=#EA6B66;noEdgeStyle=1;orthogonal=1;" edge="1" parent="1" source="21" target="20"><mxGeometry relative="1" as="geometry"><Array as="points"><mxPoint x="312" y="875"/><mxPoint x="488" y="890"/></Array></mxGeometry></mxCell><mxCell id="bastionidInstanceRoleB68B7191|bastionidInstanceProfileCF4D6490" value="Roles" style="edgeStyle=orthogonalEdgeStyle;rounded=1;orthogonalLoop=1;jettySize=auto;html=1;labelBackgroundColor=none;fontColor=#EA6B66;noEdgeStyle=1;orthogonal=1;" edge="1" parent="1" source="22" target="20"><mxGeometry relative="1" as="geometry"><Array as="points"><mxPoint x="312" y="975"/><mxPoint x="488" y="910"/></Array></mxGeometry></mxCell><mxCell id="bastionidInstanceProfileCF4D6490|bastionid504C2386" value="IamInstanceProfile" style="edgeStyle=orthogonalEdgeStyle;rounded=1;orthogonalLoop=1;jettySize=auto;html=1;labelBackgroundColor=none;fontColor=#EA6B66;noEdgeStyle=1;orthogonal=1;" edge="1" parent="1" source="23" target="22"><mxGeometry relative="1" as="geometry"><Array as="points"><mxPoint x="64" y="850"/><mxPoint x="238" y="975"/></Array></mxGeometry></mxCell><mxCell id="vpcfortigosportssubnetpublicSubnet1Subnet5B85BEF8|bastionid504C2386" value="SubnetId" style="edgeStyle=orthogonalEdgeStyle;rounded=1;orthogonalLoop=1;jettySize=auto;html=1;labelBackgroundColor=none;fontColor=#EA6B66;noEdgeStyle=1;orthogonal=1;" edge="1" parent="1" source="23" target="9"><mxGeometry relative="1" as="geometry"><Array as="points"><mxPoint x="62" y="836.6666666666666"/><mxPoint x="238" y="535"/></Array></mxGeometry></mxCell><mxCell id="publicSecurityGroupB75ADFFE|bastionid504C2386" value="SecurityGroupIds" style="edgeStyle=orthogonalEdgeStyle;rounded=1;orthogonalLoop=1;jettySize=auto;html=1;labelBackgroundColor=none;fontColor=#EA6B66;noEdgeStyle=1;orthogonal=1;" edge="1" parent="1" source="23" target="19"><mxGeometry relative="1" as="geometry"><Array as="points"><mxPoint x="62" y="863.3333333333334"/><mxPoint x="238" y="1065"/></Array></mxGeometry></mxCell><mxCell id="vpcfortigosports52282003|rdsSecurityGroup7880CD68" value="VpcId" style="edgeStyle=orthogonalEdgeStyle;rounded=1;orthogonalLoop=1;jettySize=auto;html=1;labelBackgroundColor=none;fontColor=#EA6B66;noEdgeStyle=1;orthogonal=1;" edge="1" parent="1" source="25" target="2"><mxGeometry relative="1" as="geometry"><Array as="points"><mxPoint x="312" y="1275"/><mxPoint x="400" y="1075"/><mxPoint x="650" y="1075"/><mxPoint x="738" y="635.4166666666663"/></Array></mxGeometry></mxCell><mxCell id="rdsSecurityGroup7880CD68|rdsSecurityGroupfromInfraCdkStacklambdaSecurityGroup6A9079073306015AA4A2" value="GroupId" style="edgeStyle=orthogonalEdgeStyle;rounded=1;orthogonalLoop=1;jettySize=auto;html=1;labelBackgroundColor=none;fontColor=#EA6B66;noEdgeStyle=1;orthogonal=1;" edge="1" parent="1" source="26" target="25"><mxGeometry relative="1" as="geometry"><Array as="points"><mxPoint x="62" y="1060"/><mxPoint x="236" y="1270"/></Array></mxGeometry></mxCell><mxCell id="lambdaSecurityGroup2DB5E13D|rdsSecurityGroupfromInfraCdkStacklambdaSecurityGroup6A9079073306015AA4A2" value="SourceSecurityGroupId" style="edgeStyle=orthogonalEdgeStyle;rounded=1;orthogonalLoop=1;jettySize=auto;html=1;labelBackgroundColor=none;fontColor=#EA6B66;noEdgeStyle=1;orthogonal=1;" edge="1" parent="1" source="26" target="28"><mxGeometry relative="1" as="geometry"><Array as="points"><mxPoint x="62" y="1040"/><mxPoint x="238" y="1165"/></Array></mxGeometry></mxCell><mxCell id="rdsSecurityGroup7880CD68|rdsSecurityGroupfromInfraCdkStackpublicSecurityGroupFFE1194433068CDB73C9" value="GroupId" style="edgeStyle=orthogonalEdgeStyle;rounded=1;orthogonalLoop=1;jettySize=auto;html=1;labelBackgroundColor=none;fontColor=#EA6B66;noEdgeStyle=1;orthogonal=1;" edge="1" parent="1" source="27" target="25"><mxGeometry relative="1" as="geometry"><Array as="points"><mxPoint x="62" y="960"/><mxPoint x="238" y="1260"/></Array></mxGeometry></mxCell><mxCell id="publicSecurityGroupB75ADFFE|rdsSecurityGroupfromInfraCdkStackpublicSecurityGroupFFE1194433068CDB73C9" value="SourceSecurityGroupId" style="edgeStyle=orthogonalEdgeStyle;rounded=1;orthogonalLoop=1;jettySize=auto;html=1;labelBackgroundColor=none;fontColor=#EA6B66;noEdgeStyle=1;orthogonal=1;" edge="1" parent="1" source="27" target="19"><mxGeometry relative="1" as="geometry"><Array as="points"><mxPoint x="62" y="940"/><mxPoint x="238" y="1085"/></Array></mxGeometry></mxCell><mxCell id="vpcfortigosports52282003|lambdaSecurityGroup2DB5E13D" value="VpcId" style="edgeStyle=orthogonalEdgeStyle;rounded=1;orthogonalLoop=1;jettySize=auto;html=1;labelBackgroundColor=none;fontColor=#EA6B66;noEdgeStyle=1;orthogonal=1;" edge="1" parent="1" source="28" target="2"><mxGeometry relative="1" as="geometry"><Array as="points"><mxPoint x="312" y="1175"/><mxPoint x="400" y="1025"/><mxPoint x="650" y="1025"/><mxPoint x="736" y="631.2499999999997"/></Array></mxGeometry></mxCell><mxCell id="lambdaSecurityGroup2DB5E13D|lambdaSecurityGrouptoInfraCdkStackrdsSecurityGroup365C17A833061F70ABEA" value="GroupId" style="edgeStyle=orthogonalEdgeStyle;rounded=1;orthogonalLoop=1;jettySize=auto;html=1;labelBackgroundColor=none;fontColor=#EA6B66;noEdgeStyle=1;orthogonal=1;" edge="1" parent="1" source="29" target="28"><mxGeometry relative="1" as="geometry"><Array as="points"><mxPoint x="62" y="1140"/><mxPoint x="238" y="1185"/></Array></mxGeometry></mxCell><mxCell id="rdsSecurityGroup7880CD68|lambdaSecurityGrouptoInfraCdkStackrdsSecurityGroup365C17A833061F70ABEA" value="DestinationSecurityGroupId" style="edgeStyle=orthogonalEdgeStyle;rounded=1;orthogonalLoop=1;jettySize=auto;html=1;labelBackgroundColor=none;fontColor=#EA6B66;noEdgeStyle=1;orthogonal=1;" edge="1" parent="1" source="29" target="25"><mxGeometry relative="1" as="geometry"><Array as="points"><mxPoint x="62" y="1160"/><mxPoint x="236" y="1280"/></Array></mxGeometry></mxCell><mxCell id="vpcfortigosportssubnet1Subnet1SubnetE4FDC40A|dbtigosportsSubnetGroup61987175" value="SubnetIds" style="edgeStyle=orthogonalEdgeStyle;rounded=1;orthogonalLoop=1;jettySize=auto;html=1;labelBackgroundColor=none;fontColor=#EA6B66;noEdgeStyle=1;orthogonal=1;" edge="1" parent="1" source="30" target="3"><mxGeometry relative="1" as="geometry"><Array as="points"><mxPoint x="312" y="1365"/><mxPoint x="488" y="660"/></Array></mxGeometry></mxCell><mxCell id="vpcfortigosportssubnet1Subnet2Subnet16BDA1A1|dbtigosportsSubnetGroup61987175" value="SubnetIds" style="edgeStyle=orthogonalEdgeStyle;rounded=1;orthogonalLoop=1;jettySize=auto;html=1;labelBackgroundColor=none;fontColor=#EA6B66;noEdgeStyle=1;orthogonal=1;" edge="1" parent="1" source="30" target="6"><mxGeometry relative="1" as="geometry"><Array as="points"><mxPoint x="312" y="1385"/><mxPoint x="488" y="760"/></Array></mxGeometry></mxCell><mxCell id="dbtigosportsSubnetGroup61987175|dbtigosportsC8339F6F" value="DBSubnetGroupName" style="edgeStyle=orthogonalEdgeStyle;rounded=1;orthogonalLoop=1;jettySize=auto;html=1;labelBackgroundColor=none;fontColor=#EA6B66;noEdgeStyle=1;orthogonal=1;" edge="1" parent="1" source="31" target="30"><mxGeometry relative="1" as="geometry"><Array as="points"><mxPoint x="62" y="1335"/><mxPoint x="238" y="1375"/></Array></mxGeometry></mxCell><mxCell id="rdsSecurityGroup7880CD68|dbtigosportsC8339F6F" value="VPCSecurityGroups" style="edgeStyle=orthogonalEdgeStyle;rounded=1;orthogonalLoop=1;jettySize=auto;html=1;labelBackgroundColor=none;fontColor=#EA6B66;noEdgeStyle=1;orthogonal=1;" edge="1" parent="1" source="31" target="25"><mxGeometry relative="1" as="geometry"><Array as="points"><mxPoint x="62" y="1315"/><mxPoint x="238" y="1290"/></Array></mxGeometry></mxCell></root></mxGraphModel>
            </diagram>
          </mxfile>